<?xml version="1.0" encoding="UTF-8"?>
<!DOCTYPE svg PUBLIC "-//W3C//DTD SVG 1.1//EN" "http://www.w3.org/Graphics/SVG/1.1/DTD/svg11.dtd">
<svg xmlns="http://www.w3.org/2000/svg" version="1.1" width="2392px" height="154px" style="shape-rendering:geometricPrecision; text-rendering:geometricPrecision; image-rendering:optimizeQuality; fill-rule:evenodd; clip-rule:evenodd" xmlns:xlink="http://www.w3.org/1999/xlink">
<g><path style="opacity:1" fill="#fefefe" d="M -0.5,-0.5 C 796.833,-0.5 1594.17,-0.5 2391.5,-0.5C 2391.5,50.8333 2391.5,102.167 2391.5,153.5C 1594.17,153.5 796.833,153.5 -0.5,153.5C -0.5,102.167 -0.5,50.8333 -0.5,-0.5 Z"/></g>
<g><path style="opacity:1" fill="#080808" d="M 473.5,22.5 C 483.158,20.9934 487.325,24.9934 486,34.5C 483.058,39.1532 478.891,40.6532 473.5,39C 466.868,33.4229 466.868,27.9229 473.5,22.5 Z"/></g>
<g><path style="opacity:1" fill="#494949" d="M 1606.5,106.5 C 1605.5,79.005 1605.17,51.3384 1605.5,23.5C 1595.5,23.5 1585.5,23.5 1575.5,23.5C 1575.5,26.1667 1575.5,28.8333 1575.5,31.5C 1582.02,31.1765 1588.36,31.5098 1594.5,32.5C 1587.83,32.5 1581.17,32.5 1574.5,32.5C 1574.5,29.1667 1574.5,25.8333 1574.5,22.5C 1585.17,22.5 1595.83,22.5 1606.5,22.5C 1606.5,50.5 1606.5,78.5 1606.5,106.5 Z"/></g>
<g><path style="opacity:1" fill="#050505" d="M 344.5,116.5 C 344.824,112.445 344.491,108.445 343.5,104.5C 342.893,104.624 342.56,104.957 342.5,105.5C 332.917,117.98 321.251,120.48 307.5,113C 300.611,104.828 297.611,95.3277 298.5,84.5C 299.955,56.4118 314.622,45.0784 342.5,50.5C 342.5,41.1667 342.5,31.8333 342.5,22.5C 346.5,22.5 350.5,22.5 354.5,22.5C 354.5,53.8333 354.5,85.1667 354.5,116.5C 351.167,116.5 347.833,116.5 344.5,116.5 Z"/></g>
<g><path style="opacity:1" fill="#b4b4b4" d="M 791.5,22.5 C 791.5,31.8333 791.5,41.1667 791.5,50.5C 789.585,50.7845 787.919,50.4511 786.5,49.5C 787.833,49.5 789.167,49.5 790.5,49.5C 790.173,40.3178 790.507,31.3178 791.5,22.5 Z"/></g>
<g><path style="opacity:1" fill="#040404" d="M 791.5,22.5 C 795.167,22.5 798.833,22.5 802.5,22.5C 802.5,53.8333 802.5,85.1667 802.5,116.5C 799.167,116.5 795.833,116.5 792.5,116.5C 792.666,112.486 792.499,108.486 792,104.5C 787.613,110.232 782.113,114.398 775.5,117C 765.717,119.297 757.884,116.463 752,108.5C 744.002,91.7035 744.669,75.3702 754,59.5C 762.985,50.4513 773.818,47.118 786.5,49.5C 787.919,50.4511 789.585,50.7845 791.5,50.5C 791.5,41.1667 791.5,31.8333 791.5,22.5 Z"/></g>
<g><path style="opacity:1" fill="#030303" d="M 1008.5,106.5 C 1014.64,107.49 1020.98,107.823 1027.5,107.5C 1027.5,110.5 1027.5,113.5 1027.5,116.5C 1009.83,116.5 992.167,116.5 974.5,116.5C 974.5,113.167 974.5,109.833 974.5,106.5C 981.833,106.5 989.167,106.5 996.5,106.5C 996.5,81.8333 996.5,57.1667 996.5,32.5C 990.355,31.5098 984.022,31.1765 977.5,31.5C 977.5,28.8333 977.5,26.1667 977.5,23.5C 987.5,23.5 997.5,23.5 1007.5,23.5C 1007.17,51.3384 1007.5,79.005 1008.5,106.5 Z"/></g>
<g><path style="opacity:1" fill="#3a3a3a" d="M 1008.5,106.5 C 1007.5,79.005 1007.17,51.3384 1007.5,23.5C 997.5,23.5 987.5,23.5 977.5,23.5C 977.5,26.1667 977.5,28.8333 977.5,31.5C 984.022,31.1765 990.355,31.5098 996.5,32.5C 989.833,32.5 983.167,32.5 976.5,32.5C 976.5,29.1667 976.5,25.8333 976.5,22.5C 987.167,22.5 997.833,22.5 1008.5,22.5C 1008.5,50.5 1008.5,78.5 1008.5,106.5 Z"/></g>
<g><path style="opacity:1" fill="#080808" d="M 1500.5,22.5 C 1510.83,22.5 1521.17,22.5 1531.5,22.5C 1531.5,50.5 1531.5,78.5 1531.5,106.5C 1538.17,106.5 1544.83,106.5 1551.5,106.5C 1551.5,109.833 1551.5,113.167 1551.5,116.5C 1533.83,116.5 1516.17,116.5 1498.5,116.5C 1498.5,113.5 1498.5,110.5 1498.5,107.5C 1505.69,107.825 1512.69,107.491 1519.5,106.5C 1519.5,81.8333 1519.5,57.1667 1519.5,32.5C 1513.36,31.5098 1507.02,31.1765 1500.5,31.5C 1500.5,28.5 1500.5,25.5 1500.5,22.5 Z"/></g>
<g><path style="opacity:1" fill="#020202" d="M 1606.5,106.5 C 1612.64,107.49 1618.98,107.823 1625.5,107.5C 1625.5,110.5 1625.5,113.5 1625.5,116.5C 1607.83,116.5 1590.17,116.5 1572.5,116.5C 1572.5,113.167 1572.5,109.833 1572.5,106.5C 1579.83,106.5 1587.17,106.5 1594.5,106.5C 1594.5,81.8333 1594.5,57.1667 1594.5,32.5C 1588.36,31.5098 1582.02,31.1765 1575.5,31.5C 1575.5,28.8333 1575.5,26.1667 1575.5,23.5C 1585.5,23.5 1595.5,23.5 1605.5,23.5C 1605.17,51.3384 1605.5,79.005 1606.5,106.5 Z"/></g>
<g><path style="opacity:1" fill="#080808" d="M 2023.5,22.5 C 2033.83,22.5 2044.17,22.5 2054.5,22.5C 2054.5,50.5 2054.5,78.5 2054.5,106.5C 2061.17,106.5 2067.83,106.5 2074.5,106.5C 2074.5,109.833 2074.5,113.167 2074.5,116.5C 2056.83,116.5 2039.17,116.5 2021.5,116.5C 2021.5,113.5 2021.5,110.5 2021.5,107.5C 2028.69,107.825 2035.69,107.491 2042.5,106.5C 2042.5,81.8333 2042.5,57.1667 2042.5,32.5C 2036.36,31.5098 2030.02,31.1765 2023.5,31.5C 2023.5,28.5 2023.5,25.5 2023.5,22.5 Z"/></g>
<g><path style="opacity:1" fill="#a7a7a7" d="M 60.5,26.5 C 93.581,24.1 114.414,38.7666 123,70.5C 125.189,96.9698 114.355,115.803 90.5,127C 63.5333,135.789 42.0333,128.622 26,105.5C 11.7128,75.0362 18.5462,50.5362 46.5,32C 51.1587,29.8421 55.8254,28.0088 60.5,26.5 Z"/></g>
<g><path style="opacity:1" fill="#a8a6a6" d="M 1251.5,26.5 C 1282.16,23.7361 1302.66,36.7361 1313,65.5C 1317.75,96.5121 1305.58,117.679 1276.5,129C 1252.87,134.426 1233.7,127.593 1219,108.5C 1210.92,95.6153 1208.25,81.6153 1211,66.5C 1217.09,45.5788 1230.59,32.2455 1251.5,26.5 Z"/></g>
<g><path style="opacity:1" fill="#a8a7a6" d="M 1842.5,26.5 C 1864.22,24.1198 1881.72,31.4532 1895,48.5C 1903.13,61.353 1905.8,75.353 1903,90.5C 1893.27,120.131 1872.77,133.297 1841.5,130C 1811.54,121.017 1797.7,100.85 1800,69.5C 1805.71,46.6221 1819.88,32.2888 1842.5,26.5 Z"/></g>
<g><path style="opacity:1" fill="#060606" d="M 1373.5,28.5 C 1383.72,27.8417 1393.72,28.8417 1403.5,31.5C 1403.83,36.8746 1403.49,42.2079 1402.5,47.5C 1393.91,43.6848 1384.91,42.5181 1375.5,44C 1364.23,50.2056 1359.23,59.8723 1360.5,73C 1359.73,83.0322 1362.73,91.6988 1369.5,99C 1373.55,101.872 1378.05,103.038 1383,102.5C 1390.04,102.197 1396.88,100.863 1403.5,98.5C 1403.5,103.5 1403.5,108.5 1403.5,113.5C 1390.61,117.953 1377.61,118.453 1364.5,115C 1352.09,109.025 1344.92,99.192 1343,85.5C 1340.03,68.2004 1343.87,52.7004 1354.5,39C 1360.32,34.4282 1366.65,30.9282 1373.5,28.5 Z"/></g>
<g><path style="opacity:1" fill="#4b4b4b" d="M 182.5,30.5 C 171.833,30.5 161.167,30.5 150.5,30.5C 150.5,59.1667 150.5,87.8333 150.5,116.5C 149.502,87.6715 149.169,58.6715 149.5,29.5C 160.679,29.1721 171.679,29.5054 182.5,30.5 Z"/></g>
<g><path style="opacity:1" fill="#040404" d="M 182.5,30.5 C 200.325,31.489 208.158,40.8223 206,58.5C 203.754,67.7444 197.921,73.2444 188.5,75C 192,77.1667 194.833,80 197,83.5C 201.894,94.2889 207.061,104.956 212.5,115.5C 206.167,116.833 199.833,116.833 193.5,115.5C 188.949,105.004 184.116,94.6709 179,84.5C 175.518,81.1175 171.351,79.7841 166.5,80.5C 166.5,92.5 166.5,104.5 166.5,116.5C 161.167,116.5 155.833,116.5 150.5,116.5C 150.5,87.8333 150.5,59.1667 150.5,30.5C 161.167,30.5 171.833,30.5 182.5,30.5 Z"/></g>
<g><path style="opacity:1" fill="#060606" d="M 1960.5,29.5 C 1968.42,29.185 1976.25,29.5183 1984,30.5C 1992.31,59.0868 2000.81,87.5868 2009.5,116C 2003.18,116.5 1996.84,116.666 1990.5,116.5C 1990.03,110.777 1988.69,105.277 1986.5,100C 1976.17,99.5002 1965.84,99.3335 1955.5,99.5C 1954.17,105.167 1952.83,110.833 1951.5,116.5C 1946.17,116.5 1940.83,116.5 1935.5,116.5C 1943.63,87.4482 1951.96,58.4482 1960.5,29.5 Z"/></g>
<g><path style="opacity:1" fill="#6b6b6b" d="M 1500.5,22.5 C 1500.5,25.5 1500.5,28.5 1500.5,31.5C 1507.02,31.1765 1513.36,31.5098 1519.5,32.5C 1512.83,32.5 1506.17,32.5 1499.5,32.5C 1499.19,28.9581 1499.52,25.6248 1500.5,22.5 Z"/></g>
<g><path style="opacity:1" fill="#6b6b6b" d="M 2023.5,22.5 C 2023.5,25.5 2023.5,28.5 2023.5,31.5C 2030.02,31.1765 2036.36,31.5098 2042.5,32.5C 2035.83,32.5 2029.17,32.5 2022.5,32.5C 2022.19,28.9581 2022.52,25.6248 2023.5,22.5 Z"/></g>
<g><path style="opacity:1" fill="#d7d7d7" d="M 62.5,36.5 C 87.3366,34.5361 103.837,45.2027 112,68.5C 115.612,91.781 106.779,108.281 85.5,118C 59.5828,124.79 41.4162,115.957 31,91.5C 25.5265,63.7593 36.0265,45.426 62.5,36.5 Z"/></g>
<g><path style="opacity:1" fill="#fb595c" d="M 1253.5,36.5 C 1288.5,35.6701 1305,52.6701 1303,87.5C 1295.45,111.706 1278.95,122.54 1253.5,120C 1228.62,111.758 1217.79,94.5909 1221,68.5C 1226.44,52.2214 1237.28,41.5547 1253.5,36.5 Z"/></g>
<g><path style="opacity:1" fill="#fcdb64" d="M 1843.5,36.5 C 1868.34,34.5408 1884.84,45.2074 1893,68.5C 1896.21,94.5909 1885.38,111.758 1860.5,120C 1842.51,122.564 1828.01,116.731 1817,102.5C 1808.4,86.459 1808.4,70.459 1817,54.5C 1823.94,45.622 1832.77,39.622 1843.5,36.5 Z"/></g>
<g><path style="opacity:1" fill="#fbfbfb" d="M 166.5,43.5 C 171.511,43.3341 176.511,43.5007 181.5,44C 188.666,46.8341 191.166,52.0008 189,59.5C 187.108,63.0579 184.275,65.5579 180.5,67C 175.845,67.4992 171.179,67.6658 166.5,67.5C 166.5,59.5 166.5,51.5 166.5,43.5 Z"/></g>
<g><path style="opacity:1" fill="#080808" d="M 246.5,48.5 C 274.828,48.0068 287.328,62.0068 284,90.5C 278.875,111.155 265.708,119.989 244.5,117C 228.262,111.389 220.929,99.8892 222.5,82.5C 222.649,65.5106 230.649,54.1772 246.5,48.5 Z"/></g>
<g><path style="opacity:1" fill="#090909" d="M 411.5,48.5 C 421.735,48.3559 428.569,53.0226 432,62.5C 433.075,66.77 433.575,71.1033 433.5,75.5C 429.5,75.5 425.5,75.5 421.5,75.5C 422.063,59.8693 415.397,55.3693 401.5,62C 398,65.5 394.5,69 391,72.5C 390.5,87.1629 390.333,101.83 390.5,116.5C 386.5,116.5 382.5,116.5 378.5,116.5C 378.5,94.1667 378.5,71.8333 378.5,49.5C 382.167,49.5 385.833,49.5 389.5,49.5C 389.334,53.5138 389.501,57.5138 390,61.5C 395.632,54.3169 402.799,49.9836 411.5,48.5 Z"/></g>
<g><path style="opacity:1" fill="#070707" d="M 559.5,49.5 C 567.316,50.4924 575.316,50.8257 583.5,50.5C 583.5,53.1667 583.5,55.8333 583.5,58.5C 580.102,58.1796 576.768,58.513 573.5,59.5C 573.624,60.1067 573.957,60.44 574.5,60.5C 580.694,77.6107 575.028,88.7773 557.5,94C 552.833,94.6667 548.167,94.6667 543.5,94C 541.481,93.5503 539.648,92.717 538,91.5C 532.357,98.2491 533.857,102.749 542.5,105C 550.5,105.333 558.5,105.667 566.5,106C 582.429,108.795 587.262,117.628 581,132.5C 575.406,139.152 568.24,142.985 559.5,144C 548.782,145.43 538.448,144.097 528.5,140C 521.088,133.789 519.588,126.289 524,117.5C 526.018,115.65 527.851,113.65 529.5,111.5C 524.306,107.772 522.473,102.772 524,96.5C 526.041,92.9162 528.208,89.4162 530.5,86C 524.448,77.194 523.948,68.0273 529,58.5C 537.468,49.8548 547.635,46.8548 559.5,49.5 Z"/></g>
<g><path style="opacity:1" fill="#535353" d="M 559.5,49.5 C 567.833,49.5 576.167,49.5 584.5,49.5C 584.5,52.8333 584.5,56.1667 584.5,59.5C 580.958,59.1872 577.625,59.5206 574.5,60.5C 573.957,60.44 573.624,60.1067 573.5,59.5C 576.768,58.513 580.102,58.1796 583.5,58.5C 583.5,55.8333 583.5,53.1667 583.5,50.5C 575.316,50.8257 567.316,50.4924 559.5,49.5 Z"/></g>
<g><path style="opacity:1" fill="#070707" d="M 620.5,48.5 C 629.841,47.2826 638.508,49.1159 646.5,54C 656.671,64.4704 660.171,76.9704 657,91.5C 652.015,111.59 639.182,120.09 618.5,117C 605.874,113.605 598.374,105.439 596,92.5C 594.208,81.8699 595.875,71.8699 601,62.5C 606.005,55.649 612.505,50.9823 620.5,48.5 Z"/></g>
<g><path style="opacity:1" fill="#080808" d="M 880.5,86.5 C 864.833,86.5 849.167,86.5 833.5,86.5C 833.205,88.7354 833.539,90.7354 834.5,92.5C 835.388,99.89 839.388,104.723 846.5,107C 856.913,107.845 867.246,107.345 877.5,105.5C 877.665,108.518 877.498,111.518 877,114.5C 866.368,117.293 855.534,118.127 844.5,117C 831.126,113.789 823.626,105.289 822,91.5C 819.389,76.6671 823.555,64.1671 834.5,54C 850.173,44.983 864.006,47.1496 876,60.5C 880.058,68.6681 881.558,77.3348 880.5,86.5 Z"/></g>
<g><path style="opacity:1" fill="#060606" d="M 1068.5,48.5 C 1077.3,47.5544 1085.64,49.0544 1093.5,53C 1096.04,55.2047 1098.21,57.7047 1100,60.5C 1101.46,79.0983 1101.96,97.7649 1101.5,116.5C 1098.17,116.5 1094.83,116.5 1091.5,116.5C 1091.66,113.482 1091.5,110.482 1091,107.5C 1081.53,116.877 1070.36,119.71 1057.5,116C 1048.15,110.435 1044.98,102.269 1048,91.5C 1052.16,83.6662 1058.66,79.1662 1067.5,78C 1075.16,77.5003 1082.83,77.3336 1090.5,77.5C 1092.14,69.9555 1089.8,64.1222 1083.5,60C 1077.9,58.5439 1072.24,58.2106 1066.5,59C 1061.79,60.0706 1057.13,61.2372 1052.5,62.5C 1052.18,59.1016 1052.51,55.7683 1053.5,52.5C 1058.52,50.7938 1063.52,49.4605 1068.5,48.5 Z"/></g>
<g><path style="opacity:1" fill="#080808" d="M 1465.5,116.5 C 1465.82,113.428 1465.48,110.428 1464.5,107.5C 1463.89,107.624 1463.56,107.957 1463.5,108.5C 1455.42,116.246 1445.75,119.079 1434.5,117C 1422.17,112.16 1418,103.327 1422,90.5C 1426.22,82.9637 1432.72,78.797 1441.5,78C 1448.83,77.5003 1456.16,77.3337 1463.5,77.5C 1463.67,73.4862 1463.5,69.4862 1463,65.5C 1461.75,62.6193 1459.58,60.786 1456.5,60C 1450.92,58.4826 1445.25,58.1492 1439.5,59C 1435.29,60.6358 1430.96,61.8025 1426.5,62.5C 1426.18,59.1016 1426.51,55.7683 1427.5,52.5C 1440.13,47.5007 1452.8,47.334 1465.5,52C 1470.55,54.7199 1473.72,58.8865 1475,64.5C 1475.5,81.8301 1475.67,99.1635 1475.5,116.5C 1472.17,116.5 1468.83,116.5 1465.5,116.5 Z"/></g>
<g><path style="opacity:1" fill="#080808" d="M 1702.5,86.5 C 1686.83,86.5 1671.17,86.5 1655.5,86.5C 1655.21,88.7354 1655.54,90.7354 1656.5,92.5C 1657.39,99.89 1661.39,104.723 1668.5,107C 1678.91,107.845 1689.25,107.345 1699.5,105.5C 1699.66,108.518 1699.5,111.518 1699,114.5C 1688.37,117.293 1677.53,118.127 1666.5,117C 1653.13,113.789 1645.63,105.289 1644,91.5C 1641.39,76.6671 1645.56,64.1671 1656.5,54C 1672.17,44.983 1686.01,47.1496 1698,60.5C 1702.06,68.6681 1703.56,77.3348 1702.5,86.5 Z"/></g>
<g><path style="opacity:1" fill="#efefef" d="M 1970.5,46.5 C 1971.59,46.62 1972.25,47.2867 1972.5,48.5C 1976.15,61.0896 1979.48,73.7562 1982.5,86.5C 1975.17,86.5 1967.83,86.5 1960.5,86.5C 1963.63,73.12 1966.96,59.7867 1970.5,46.5 Z"/></g>
<g><path style="opacity:1" fill="#080808" d="M 2118.5,48.5 C 2136.8,47.5442 2147.97,55.8776 2152,73.5C 2154.81,87.8974 2151.31,100.397 2141.5,111C 2129.22,118.809 2116.56,119.476 2103.5,113C 2096.68,107.883 2092.52,101.049 2091,92.5C 2088.48,77.3912 2092.65,64.5579 2103.5,54C 2108.3,51.2375 2113.3,49.4042 2118.5,48.5 Z"/></g>
<g><path style="opacity:1" fill="#0a0a0a" d="M 2170.5,116.5 C 2170.5,94.5 2170.5,72.5 2170.5,50.5C 2173.5,50.5 2176.5,50.5 2179.5,50.5C 2179.18,53.8984 2179.51,57.2317 2180.5,60.5C 2181.11,60.3764 2181.44,60.0431 2181.5,59.5C 2192.13,46.9108 2204.3,45.2442 2218,54.5C 2220.64,58.0716 2222.3,62.0716 2223,66.5C 2223.5,83.1633 2223.67,99.83 2223.5,116.5C 2219.5,116.5 2215.5,116.5 2211.5,116.5C 2211.67,99.83 2211.5,83.1633 2211,66.5C 2209.01,61.2484 2205.17,58.5817 2199.5,58.5C 2191.88,60.2659 2186.05,64.5992 2182,71.5C 2181.5,86.4963 2181.33,101.496 2181.5,116.5C 2177.83,116.5 2174.17,116.5 2170.5,116.5 Z"/></g>
<g><path style="opacity:1" fill="#090909" d="M 2246.5,115.5 C 2245.93,111.671 2246.6,108.337 2248.5,105.5C 2258.4,107.46 2268.4,107.96 2278.5,107C 2286.85,102.918 2287.52,97.9182 2280.5,92C 2273.91,89.4695 2267.24,87.1361 2260.5,85C 2246.78,78.7779 2243.62,69.2779 2251,56.5C 2255.2,52.8164 2260.03,50.3164 2265.5,49C 2274.59,48.1714 2283.59,48.6714 2292.5,50.5C 2292.5,53.8333 2292.5,57.1667 2292.5,60.5C 2283.58,58.7301 2274.58,58.2301 2265.5,59C 2257.86,61.8788 2256.52,66.5455 2261.5,73C 2269.27,76.5896 2277.27,79.5896 2285.5,82C 2298.01,88.5233 2300.51,97.69 2293,109.5C 2288.09,113.205 2282.59,115.705 2276.5,117C 2266.41,117.92 2256.41,117.42 2246.5,115.5 Z"/></g>
<g><path style="opacity:1" fill="#070707" d="M 2339.5,48.5 C 2348.84,47.2826 2357.51,49.1159 2365.5,54C 2375.67,64.4704 2379.17,76.9704 2376,91.5C 2371.02,111.59 2358.18,120.09 2337.5,117C 2324.87,113.605 2317.37,105.439 2315,92.5C 2313.21,81.8699 2314.87,71.8699 2320,62.5C 2325,55.649 2331.5,50.9823 2339.5,48.5 Z"/></g>
<g><path style="opacity:1" fill="#030303" d="M 453.5,50.5 C 463.833,50.5 474.167,50.5 484.5,50.5C 484.17,69.3408 484.503,88.0075 485.5,106.5C 491.645,107.49 497.978,107.823 504.5,107.5C 504.5,110.5 504.5,113.5 504.5,116.5C 486.833,116.5 469.167,116.5 451.5,116.5C 451.5,113.167 451.5,109.833 451.5,106.5C 458.833,106.5 466.167,106.5 473.5,106.5C 473.5,90.8333 473.5,75.1667 473.5,59.5C 466.833,59.5 460.167,59.5 453.5,59.5C 453.5,56.5 453.5,53.5 453.5,50.5 Z"/></g>
<g><path style="opacity:1" fill="#6d6d6d" d="M 453.5,50.5 C 463.987,49.5056 474.654,49.1722 485.5,49.5C 485.5,68.5 485.5,87.5 485.5,106.5C 484.503,88.0075 484.17,69.3408 484.5,50.5C 474.167,50.5 463.833,50.5 453.5,50.5 Z"/></g>
<g><path style="opacity:1" fill="#292929" d="M 2181.5,59.5 C 2181.44,60.0431 2181.11,60.3764 2180.5,60.5C 2179.51,57.2317 2179.18,53.8984 2179.5,50.5C 2176.5,50.5 2173.5,50.5 2170.5,50.5C 2170.5,72.5 2170.5,94.5 2170.5,116.5C 2169.5,94.3396 2169.17,72.0062 2169.5,49.5C 2173.17,49.5 2176.83,49.5 2180.5,49.5C 2180.19,53.0419 2180.52,56.3752 2181.5,59.5 Z"/></g>
<g><path style="opacity:1" fill="#fafafa" d="M 546.5,57.5 C 560.178,56.0122 566.344,62.0122 565,75.5C 563.833,80.6667 560.667,83.8333 555.5,85C 544.813,86.9744 538.48,82.6411 536.5,72C 536.933,65.0822 540.266,60.2489 546.5,57.5 Z"/></g>
<g><path style="opacity:1" fill="#fcfcfc" d="M 247.5,58.5 C 260.025,56.5076 268.191,61.5076 272,73.5C 272.667,79.8333 272.667,86.1667 272,92.5C 266.783,107.137 256.949,111.304 242.5,105C 239.117,101.731 236.617,97.8974 235,93.5C 234.104,85.7536 234.437,78.087 236,70.5C 238.691,65.3111 242.524,61.3111 247.5,58.5 Z"/></g>
<g><path style="opacity:1" fill="#fbfbfb" d="M 621.5,58.5 C 634.824,56.9011 642.991,62.5678 646,75.5C 648.198,86.8892 645.364,96.7226 637.5,105C 617.284,111.376 607.284,103.876 607.5,82.5C 607.085,71.306 611.751,63.306 621.5,58.5 Z"/></g>
<g><path style="opacity:1" fill="#fafafa" d="M 868.5,77.5 C 857.167,77.5 845.833,77.5 834.5,77.5C 834.5,76.1667 834.5,74.8333 834.5,73.5C 838.303,59.5152 846.97,55.0152 860.5,60C 866.548,64.2649 869.215,70.0983 868.5,77.5 Z"/></g>
<g><path style="opacity:1" fill="#fafafa" d="M 1690.5,77.5 C 1679.17,77.5 1667.83,77.5 1656.5,77.5C 1656.5,76.1667 1656.5,74.8333 1656.5,73.5C 1660.3,59.5152 1668.97,55.0152 1682.5,60C 1688.55,64.2649 1691.22,70.0983 1690.5,77.5 Z"/></g>
<g><path style="opacity:1" fill="#fbfbfb" d="M 2116.5,58.5 C 2128.21,56.9314 2136.05,61.598 2140,72.5C 2140.67,79.5 2140.67,86.5 2140,93.5C 2134.97,106.517 2125.81,110.683 2112.5,106C 2107.22,102.618 2104.05,97.7844 2103,91.5C 2100.03,79.5444 2102.86,69.3777 2111.5,61C 2113.31,60.2432 2114.98,59.4098 2116.5,58.5 Z"/></g>
<g><path style="opacity:1" fill="#fbfbfb" d="M 2340.5,58.5 C 2353.82,56.9011 2361.99,62.5678 2365,75.5C 2367.2,86.8892 2364.36,96.7226 2356.5,105C 2336.28,111.376 2326.28,103.876 2326.5,82.5C 2326.08,71.306 2330.75,63.306 2340.5,58.5 Z"/></g>
<g><path style="opacity:1" fill="#fbfbfb" d="M 341.5,60.5 C 342.476,71.085 342.809,81.7517 342.5,92.5C 338.664,98.5019 333.664,103.335 327.5,107C 321.268,108.627 316.435,106.794 313,101.5C 308.863,90.9296 308.53,80.263 312,69.5C 315.409,63.0992 320.742,59.4325 328,58.5C 332.52,59.1219 337.02,59.7885 341.5,60.5 Z"/></g>
<g><path style="opacity:1" fill="#fafafa" d="M 772.5,58.5 C 778.711,58.0161 784.711,58.8494 790.5,61C 791.652,71.4231 791.819,81.9231 791,92.5C 787.445,99.0548 782.279,103.888 775.5,107C 766.519,108.374 761.019,104.541 759,95.5C 758.333,88.5 758.333,81.5 759,74.5C 760.849,66.8255 765.349,61.4922 772.5,58.5 Z"/></g>
<g><path style="opacity:1" fill="#707070" d="M 341.5,60.5 C 342.828,65.4558 343.495,70.7891 343.5,76.5C 343.499,82.0108 343.166,87.3441 342.5,92.5C 342.809,81.7517 342.476,71.085 341.5,60.5 Z"/></g>
<g><path style="opacity:1" fill="#020202" d="M 65.5,65.5 C 80.0101,64.1685 85.8434,70.5018 83,84.5C 78.9834,91.1375 73.1501,93.3042 65.5,91C 58.7639,87.024 56.2639,81.1906 58,73.5C 59.6904,69.9791 62.1904,67.3124 65.5,65.5 Z"/></g>
<g><path style="opacity:1" fill="#030100" d="M 1256.5,65.5 C 1271.85,64.0133 1277.69,70.6799 1274,85.5C 1269.51,91.174 1263.68,93.0073 1256.5,91C 1248.55,85.818 1246.72,78.9847 1251,70.5C 1252.73,68.5981 1254.56,66.9314 1256.5,65.5 Z"/></g>
<g><path style="opacity:1" fill="#030201" d="M 1846.5,65.5 C 1860.96,64.1175 1866.79,70.4508 1864,84.5C 1859.98,91.1375 1854.15,93.3042 1846.5,91C 1839.56,87.2001 1837.06,81.3667 1839,73.5C 1840.69,69.9791 1843.19,67.3124 1846.5,65.5 Z"/></g>
<g><path style="opacity:1" fill="#7b7b7b" d="M 834.5,73.5 C 834.5,74.8333 834.5,76.1667 834.5,77.5C 845.833,77.5 857.167,77.5 868.5,77.5C 857.012,78.4949 845.345,78.8283 833.5,78.5C 833.216,76.5853 833.549,74.9187 834.5,73.5 Z"/></g>
<g><path style="opacity:1" fill="#7b7b7b" d="M 1656.5,73.5 C 1656.5,74.8333 1656.5,76.1667 1656.5,77.5C 1667.83,77.5 1679.17,77.5 1690.5,77.5C 1679.01,78.4949 1667.35,78.8283 1655.5,78.5C 1655.22,76.5853 1655.55,74.9187 1656.5,73.5 Z"/></g>
<g><path style="opacity:1" fill="#9f9f9f" d="M 880.5,86.5 C 865.342,87.4962 850.009,87.8295 834.5,87.5C 834.5,89.1667 834.5,90.8333 834.5,92.5C 833.539,90.7354 833.205,88.7354 833.5,86.5C 849.167,86.5 864.833,86.5 880.5,86.5 Z"/></g>
<g><path style="opacity:1" fill="#fafafa" d="M 1067.5,86.5 C 1075.17,86.5 1082.83,86.5 1090.5,86.5C 1090.82,90.5546 1090.49,94.5546 1089.5,98.5C 1082.7,105.822 1074.37,108.655 1064.5,107C 1062.33,106.167 1060.83,104.667 1060,102.5C 1057.97,94.9068 1060.47,89.5735 1067.5,86.5 Z"/></g>
<g><path style="opacity:1" fill="#f9f9f9" d="M 1441.5,86.5 C 1448.83,86.5 1456.17,86.5 1463.5,86.5C 1463.67,90.5138 1463.5,94.5138 1463,98.5C 1455.59,106.755 1446.76,109.255 1436.5,106C 1432.33,102.146 1431.5,97.6457 1434,92.5C 1436.13,89.8474 1438.63,87.8474 1441.5,86.5 Z"/></g>
<g><path style="opacity:1" fill="#9f9f9f" d="M 1702.5,86.5 C 1687.34,87.4962 1672.01,87.8295 1656.5,87.5C 1656.5,89.1667 1656.5,90.8333 1656.5,92.5C 1655.54,90.7354 1655.21,88.7354 1655.5,86.5C 1671.17,86.5 1686.83,86.5 1702.5,86.5 Z"/></g>
<g><path style="opacity:1" fill="#5c5c5c" d="M 2248.5,105.5 C 2246.6,108.337 2245.93,111.671 2246.5,115.5C 2245.52,112.038 2245.19,108.371 2245.5,104.5C 2246.79,104.263 2247.79,104.596 2248.5,105.5 Z"/></g>
<g><path style="opacity:1" fill="#6d6d6d" d="M 485.5,106.5 C 492.167,106.5 498.833,106.5 505.5,106.5C 505.813,110.042 505.479,113.375 504.5,116.5C 504.5,113.5 504.5,110.5 504.5,107.5C 497.978,107.823 491.645,107.49 485.5,106.5 Z"/></g>
<g><path style="opacity:1" fill="#5f5f5f" d="M 1008.5,106.5 C 1015.17,106.5 1021.83,106.5 1028.5,106.5C 1028.81,110.042 1028.48,113.375 1027.5,116.5C 1027.5,113.5 1027.5,110.5 1027.5,107.5C 1020.98,107.823 1014.64,107.49 1008.5,106.5 Z"/></g>
<g><path style="opacity:1" fill="#626262" d="M 1519.5,106.5 C 1512.69,107.491 1505.69,107.825 1498.5,107.5C 1498.5,110.5 1498.5,113.5 1498.5,116.5C 1497.52,113.375 1497.19,110.042 1497.5,106.5C 1504.83,106.5 1512.17,106.5 1519.5,106.5 Z"/></g>
<g><path style="opacity:1" fill="#6d6d6d" d="M 1606.5,106.5 C 1613.17,106.5 1619.83,106.5 1626.5,106.5C 1626.81,110.042 1626.48,113.375 1625.5,116.5C 1625.5,113.5 1625.5,110.5 1625.5,107.5C 1618.98,107.823 1612.64,107.49 1606.5,106.5 Z"/></g>
<g><path style="opacity:1" fill="#626262" d="M 2042.5,106.5 C 2035.69,107.491 2028.69,107.825 2021.5,107.5C 2021.5,110.5 2021.5,113.5 2021.5,116.5C 2020.52,113.375 2020.19,110.042 2020.5,106.5C 2027.83,106.5 2035.17,106.5 2042.5,106.5 Z"/></g>
<g><path style="opacity:1" fill="#858585" d="M 342.5,105.5 C 342.56,104.957 342.893,104.624 343.5,104.5C 344.491,108.445 344.824,112.445 344.5,116.5C 343.833,112.833 343.167,109.167 342.5,105.5 Z"/></g>
<g><path style="opacity:1" fill="#939393" d="M 1463.5,108.5 C 1463.56,107.957 1463.89,107.624 1464.5,107.5C 1465.48,110.428 1465.82,113.428 1465.5,116.5C 1464.83,113.833 1464.17,111.167 1463.5,108.5 Z"/></g>
<g><path style="opacity:1" fill="#f9f9f9" d="M 538.5,115.5 C 547.173,115.334 555.84,115.5 564.5,116C 573.086,120.195 573.752,125.529 566.5,132C 556.977,136.219 547.311,136.553 537.5,133C 532.064,126.949 532.397,121.115 538.5,115.5 Z"/></g>
</svg>
